<svg width="55" height="55" viewBox="0 0 55 55" fill="none" xmlns="http://www.w3.org/2000/svg">
<path d="M15.2916 16.2916H16.2916V15.2916V5.1751C16.2916 3.41892 17.577 1.909 19.3503 1.62708C24.7457 0.790975 30.2492 0.790974 35.6446 1.62707C37.4179 1.90898 38.7033 3.41891 38.7033 5.1751V9.7935C38.7033 10.011 38.5462 10.168 38.3288 10.168H36.9543C35.6322 10.168 34.5797 11.2205 34.5797 12.5426V21.3946C34.5797 21.9419 34.1477 22.3739 33.6004 22.3739H21.3946C15.2067 22.3739 10.168 27.4125 10.168 33.6004V38.3288C10.168 38.5462 10.011 38.7033 9.7935 38.7033H5.1751C3.41891 38.7033 1.90898 37.4179 1.62707 35.6446C0.790974 30.2492 0.790975 24.7457 1.62708 19.3503C1.909 17.577 3.41892 16.2916 5.1751 16.2916H15.2916ZM19.7073 7.64924C19.7073 8.5266 20.1181 9.31958 20.6771 9.87862C21.2362 10.4377 22.0291 10.8485 22.9065 10.8485C23.7915 10.8485 24.591 10.4428 25.157 9.8816C25.7219 9.32141 26.1333 8.52719 26.1333 7.64924C26.1333 6.80354 25.7508 5.91201 25.1409 5.33557C24.5652 4.76696 23.7109 4.4225 22.9065 4.4225C22.0286 4.4225 21.2344 4.83384 20.6742 5.39875C20.1129 5.9647 19.7073 6.76423 19.7073 7.64924Z" stroke="white" stroke-width="2"/>
<path d="M39.7034 38.7034H38.7034V39.7034V49.8199C38.7034 51.5761 37.4179 53.0861 35.6446 53.3679C30.2492 54.204 24.7458 54.204 19.3504 53.3679C17.5771 53.0861 16.2917 51.5761 16.2917 49.8199V33.6005C16.2917 30.7714 18.5655 28.4975 21.3946 28.4975H33.6004C37.537 28.4975 40.7034 25.2978 40.7034 21.3946V16.6662C40.7034 16.4488 40.8604 16.2917 41.0779 16.2917H49.8199C51.5761 16.2917 53.086 17.5771 53.3679 19.3504C54.204 24.7458 54.204 30.2492 53.3679 35.6446C53.086 37.4179 51.5761 38.7034 49.8199 38.7034H39.7034ZM34.3103 44.9928L34.3084 44.991C33.7383 44.4617 32.8629 44.119 32.0885 44.119C31.2029 44.119 30.4021 44.5252 29.835 45.0923C29.2679 45.6594 28.8617 46.4602 28.8617 47.3458C28.8617 48.2391 29.2812 49.0399 29.8483 49.6022C30.4141 50.1633 31.213 50.5725 32.0885 50.5725C32.9674 50.5725 33.7614 50.1603 34.3242 49.5928C34.8888 49.0235 35.2944 48.2252 35.3149 47.3415L35.3152 47.3299V47.3183C35.3152 46.5008 34.9321 45.5732 34.3103 44.9928Z" stroke="white" stroke-width="2"/>
</svg>
